PathFileType	3	(X/Y/Z)	walking_1__fused_aligned.trc
DataRate	CameraRate	NumFrames	NumMarkers	Units	OrigDataRate	OrigDataStartFrame	OrigNumFrames
100.0	100.0	10	19	mm	100.0	1527	6105
Frame#	Time	pelvis			neck			head			hip_left			hip_right			knee_left			knee_right			ankle_left			ankle_right			heel_left			heel_right			toe_left			toe_right			shoulder_left			shoulder_right			elbow_left			elbow_right			wrist_left			wrist_right			
		X1	Y1	Z1	X2	Y2	Z2	X3	Y3	Z3	X4	Y4	Z4	X5	Y5	Z5	X6	Y6	Z6	X7	Y7	Z7	X8	Y8	Z8	X9	Y9	Z9	X10	Y10	Z10	X11	Y11	Z11	X12	Y12	Z12	X13	Y13	Z13	X14	Y14	Z14	X15	Y15	Z15	X16	Y16	Z16	X17	Y17	Z17	X18	Y18	Z18	X19	Y19	Z19	
1527	15.26000	43.305890	934.167688	269.162070	15.546351	1485.545446	355.544628	23.660888	1546.239508	518.287282	120.927608	935.674530	271.856285	-34.315842	932.660849	266.467862	131.817941	530.005338	466.882260	-81.852485	488.019035	271.612670	135.998019	114.768883	479.668241	-83.733126	159.871717	27.398104	135.526742	61.302628	452.008469	-79.818107	134.057185	-22.920259	114.149275	79.981417	675.783790	-94.794771	36.064512	153.134056	196.053803	1451.583111	286.982400	-168.367663	1418.772540	331.731709	274.823285	1169.449055	209.622303	-221.899398	1122.375007	336.264850	353.318139	915.444072	254.093479	-197.266663	920.797229	516.886262
1528	15.27000	45.116559	933.553003	269.719358	17.569740	1485.179152	355.532022	25.598535	1546.140099	518.179607	122.742316	935.218510	272.452701	-32.509199	931.887497	266.986025	132.179097	529.010001	465.558513	-80.709490	487.809984	273.474785	135.735800	110.575711	484.601234	-82.355938	164.101904	22.202586	135.252712	56.075118	457.492135	-78.341675	139.575518	-28.723041	113.807543	78.859597	683.808372	-92.920650	36.974066	144.427244	198.139720	1450.882566	287.180022	-166.431680	1418.463607	331.630349	276.665840	1168.390265	210.161784	-220.037433	1121.969905	336.632379	355.062138	914.056089	253.773377	-195.250895	921.264985	519.335070
1529	15.28000	46.927228	932.938318	270.276647	19.593129	1484.812859	355.519416	27.536183	1546.040689	518.071932	124.557023	934.762491	273.049118	-30.702557	931.114144	267.504188	132.540253	528.014664	464.234766	-79.566495	487.600932	275.336900	135.473582	106.382538	489.534228	-80.978750	168.332091	17.007069	134.978681	50.847607	462.975800	-76.865243	145.093850	-34.525822	113.465811	77.737777	691.832955	-91.046528	37.883620	135.720432	200.225636	1450.182021	287.377643	-164.495697	1418.154674	331.528989	278.508396	1167.331474	210.701265	-218.175467	1121.564803	336.999908	356.806138	912.668105	253.453275	-193.235127	921.732742	521.783878
1530	15.29000	49.322559	932.572660	269.779048	22.215425	1484.623992	354.721654	29.564781	1545.936447	517.138424	126.914819	934.472120	272.500619	-28.269698	930.673202	267.057468	133.677002	526.652795	460.178296	-77.700087	488.876219	280.174401	135.217531	104.477613	486.945887	-79.433113	171.979695	17.453569	134.483244	48.770405	460.587771	-75.374648	149.561473	-34.544758	113.744973	76.538248	689.499712	-88.913284	39.025285	134.031482	202.997527	1449.778716	287.547588	-161.642264	1418.171293	329.931916	281.419031	1166.637413	211.811337	-215.469980	1121.617260	334.504929	358.538235	911.571639	254.769198	-191.850845	921.254864	518.735461
1531	15.30000	51.717889	932.207002	269.281448	24.837721	1484.435125	353.923891	31.593379	1545.832206	516.204917	129.272615	934.181749	271.952120	-25.836840	930.232260	266.610748	134.813751	525.290926	456.121827	-75.833679	490.151505	285.011903	134.961480	102.572689	484.357546	-77.887475	175.627300	17.900069	133.987807	46.693204	458.199742	-73.884053	154.029095	-34.563695	114.024136	75.338719	687.166469	-86.780039	40.166951	132.342533	205.769418	1449.375412	287.717533	-158.788832	1418.187913	328.334842	284.329665	1165.943353	212.921409	-212.764493	1121.669718	332.009950	360.270332	910.475172	256.085121	-190.466563	920.776987	515.687044
1532	15.31000	54.113219	931.841344	268.783849	27.460017	1484.246258	353.126129	33.621976	1545.727964	515.271409	131.630411	933.891377	271.403621	-23.403981	929.791318	266.164028	135.950500	523.929057	452.065357	-73.967271	491.426792	289.849404	134.705428	100.667764	481.769205	-76.341838	179.274905	18.346569	133.492370	44.616002	455.811713	-72.393458	158.496718	-34.582632	114.303298	74.139190	684.833227	-84.646794	41.308616	130.653584	208.541308	1448.972107	287.887477	-155.935400	1418.204533	326.737769	287.240299	1165.249292	214.031481	-210.059006	1121.722175	329.514971	362.002430	909.378705	257.401045	-189.082281	920.299110	512.638627
1533	15.32000	56.508550	931.475686	268.286249	30.082313	1484.057391	352.328367	35.650574	1545.623723	514.337901	133.988207	933.601006	270.855122	-20.971123	929.350376	265.717308	137.087249	522.567187	448.008887	-72.100863	492.702078	294.686905	134.449377	98.762840	479.180865	-74.796200	182.922510	18.793069	132.996932	42.538800	453.423684	-70.902863	162.964340	-34.601568	114.582461	72.939660	682.499984	-82.513549	42.450281	128.964635	211.313199	1448.568802	288.057422	-153.081967	1418.221153	325.140696	290.150933	1164.555232	215.141553	-207.353519	1121.774633	327.019992	363.734527	908.282238	258.716968	-187.697999	919.821233	509.590211
1534	15.33000	58.903880	931.110028	267.788650	32.704609	1483.868524	351.530605	37.679172	1545.519481	513.404394	136.346003	933.310635	270.306624	-18.538265	928.909434	265.270588	138.223998	521.205318	443.952418	-70.234455	493.977365	299.524406	134.193326	96.857915	476.592524	-73.250563	186.570115	19.239569	132.501495	40.461598	451.035654	-69.412269	167.431963	-34.620505	114.861623	71.740131	680.166741	-80.380305	43.591946	127.275686	214.085090	1448.165498	288.227367	-150.228535	1418.237773	323.543623	293.061568	1163.861171	216.251625	-204.648032	1121.827090	324.525013	365.466624	907.185771	260.032891	-186.313717	919.343355	506.541794
1535	15.34000	61.299210	930.744370	267.291050	35.326905	1483.679657	350.732842	39.707769	1545.415240	512.470886	138.703799	933.020263	269.758125	-16.105406	928.468492	264.823869	139.360747	519.843449	439.895948	-68.368047	495.252651	304.361908	133.937275	94.952991	474.004183	-71.704925	190.217720	19.686069	132.006058	38.384396	448.647625	-67.921674	171.899586	-34.639441	115.140785	70.540602	677.833499	-78.247060	44.733612	125.586737	216.856980	1447.762193	288.397312	-147.375102	1418.254392	321.946549	295.972202	1163.167111	217.361696	-201.942545	1121.879548	322.030034	367.198722	906.089304	261.348814	-184.929435	918.865478	503.493377
1536	15.35000	63.694541	930.378713	266.793451	37.949201	1483.490790	349.935080	41.736367	1545.310998	511.537378	141.061595	932.729892	269.209626	-13.672548	928.027550	264.377149	140.497496	518.481580	435.839478	-66.501639	496.527938	309.199409	133.681224	93.048066	471.415842	-70.159288	193.865324	20.132569	131.510621	36.307194	446.259596	-66.431079	176.367208	-34.658378	115.419948	69.341073	675.500256	-76.113815	45.875277	123.897788	219.628871	1447.358889	288.567256	-144.521670	1418.271012	320.349476	298.882836	1162.473050	218.471768	-199.237058	1121.932005	319.535055	368.930819	904.992837	262.664738	-183.545153	918.387601	500.444960
